<svg width="263" height="59" viewBox="0 0 263 59" fill="none" xmlns="http://www.w3.org/2000/svg">
<path d="M59.288 27.968H67.376L66.776 30.992H58.688L59.288 27.968ZM58.184 34.88H67.352L66.704 38H53.696L57.056 21.2H69.752L69.104 24.32H60.296L58.184 34.88ZM67.6889 38L75.1289 30.368L74.6489 32.264L70.7129 25.088H74.6009L77.2889 30.056L75.5609 30.032L80.2409 25.088H84.3689L77.2649 32.48L77.5769 30.488L81.7529 38H77.7929L75.0329 32.864H76.7849L71.9609 38H67.6889ZM91.9464 38.192C90.9064 38.192 89.9944 37.992 89.2104 37.592C88.4424 37.192 87.8664 36.576 87.4824 35.744C87.0984 34.896 86.9624 33.808 87.0744 32.48C87.1704 30.944 87.4824 29.608 88.0104 28.472C88.5544 27.336 89.2904 26.456 90.2184 25.832C91.1464 25.208 92.2424 24.896 93.5064 24.896C94.5144 24.896 95.4424 25.128 96.2904 25.592C97.1384 26.04 97.8184 26.696 98.3304 27.56C98.8424 28.408 99.0984 29.448 99.0984 30.68C99.0984 31.752 98.9144 32.752 98.5464 33.68C98.1784 34.592 97.6664 35.384 97.0104 36.056C96.3704 36.728 95.6184 37.256 94.7544 37.64C93.8904 38.008 92.9544 38.192 91.9464 38.192ZM82.7544 42.656L86.2584 25.088H89.8104L89.2824 27.656L88.4664 31.496L87.9624 35.336L86.4984 42.656H82.7544ZM91.5144 35.096C92.2664 35.096 92.9224 34.92 93.4824 34.568C94.0424 34.2 94.4824 33.704 94.8024 33.08C95.1384 32.44 95.3064 31.696 95.3064 30.848C95.3064 29.968 95.0504 29.272 94.5384 28.76C94.0264 28.248 93.2984 27.992 92.3544 27.992C91.6344 27.992 90.9864 28.176 90.4104 28.544C89.8344 28.896 89.3864 29.392 89.0664 30.032C88.7464 30.656 88.5864 31.392 88.5864 32.24C88.5864 33.12 88.8424 33.816 89.3544 34.328C89.8664 34.84 90.5864 35.096 91.5144 35.096ZM107.125 38.192C105.781 38.192 104.613 37.952 103.621 37.472C102.645 36.992 101.885 36.32 101.341 35.456C100.797 34.592 100.525 33.576 100.525 32.408C100.525 30.968 100.845 29.688 101.485 28.568C102.141 27.432 103.037 26.536 104.173 25.88C105.325 25.224 106.645 24.896 108.133 24.896C109.397 24.896 110.485 25.136 111.397 25.616C112.309 26.08 113.013 26.736 113.509 27.584C114.021 28.416 114.277 29.416 114.277 30.584C114.277 30.92 114.253 31.256 114.205 31.592C114.173 31.928 114.125 32.248 114.061 32.552H103.381L103.765 30.368H112.309L110.773 31.04C110.901 30.32 110.861 29.72 110.653 29.24C110.445 28.744 110.109 28.368 109.645 28.112C109.181 27.84 108.621 27.704 107.965 27.704C107.149 27.704 106.453 27.904 105.877 28.304C105.317 28.688 104.893 29.224 104.605 29.912C104.317 30.6 104.173 31.376 104.173 32.24C104.173 33.232 104.445 33.976 104.989 34.472C105.549 34.952 106.389 35.192 107.509 35.192C108.165 35.192 108.797 35.088 109.405 34.88C110.013 34.672 110.533 34.376 110.965 33.992L112.525 36.464C111.773 37.056 110.925 37.496 109.981 37.784C109.053 38.056 108.101 38.192 107.125 38.192ZM125.411 24.896C126.515 24.896 127.451 25.128 128.219 25.592C128.987 26.04 129.531 26.704 129.851 27.584C130.171 28.464 130.203 29.552 129.947 30.848L128.507 38H124.763L126.155 31.088C126.347 30.144 126.267 29.416 125.915 28.904C125.579 28.392 124.955 28.136 124.043 28.136C123.099 28.136 122.307 28.408 121.667 28.952C121.043 29.496 120.611 30.328 120.371 31.448L119.075 38H115.331L117.899 25.088H121.451L120.707 28.736L120.179 27.632C120.803 26.688 121.571 26 122.483 25.568C123.411 25.12 124.387 24.896 125.411 24.896ZM136.629 38.192C135.493 38.192 134.421 38.064 133.413 37.808C132.421 37.552 131.653 37.232 131.109 36.848L132.549 34.136C133.109 34.504 133.789 34.8 134.589 35.024C135.405 35.248 136.221 35.36 137.037 35.36C137.917 35.36 138.557 35.248 138.957 35.024C139.357 34.8 139.557 34.496 139.557 34.112C139.557 33.808 139.389 33.584 139.053 33.44C138.717 33.28 138.293 33.152 137.781 33.056C137.269 32.96 136.717 32.848 136.125 32.72C135.549 32.592 134.997 32.416 134.469 32.192C133.957 31.952 133.533 31.616 133.197 31.184C132.877 30.736 132.717 30.152 132.717 29.432C132.717 28.456 132.989 27.632 133.533 26.96C134.093 26.288 134.861 25.776 135.837 25.424C136.829 25.072 137.949 24.896 139.197 24.896C140.093 24.896 140.965 24.992 141.813 25.184C142.661 25.376 143.381 25.64 143.973 25.976L142.629 28.712C142.021 28.328 141.381 28.072 140.709 27.944C140.053 27.8 139.421 27.728 138.813 27.728C137.933 27.728 137.293 27.856 136.893 28.112C136.509 28.352 136.317 28.648 136.317 29C136.317 29.304 136.477 29.544 136.797 29.72C137.133 29.88 137.557 30.016 138.069 30.128C138.581 30.224 139.133 30.336 139.725 30.464C140.317 30.576 140.869 30.752 141.381 30.992C141.893 31.216 142.309 31.544 142.629 31.976C142.965 32.392 143.133 32.96 143.133 33.68C143.133 34.656 142.845 35.488 142.269 36.176C141.709 36.848 140.941 37.352 139.965 37.688C138.989 38.024 137.877 38.192 136.629 38.192ZM151.539 38.192C150.195 38.192 149.027 37.952 148.035 37.472C147.059 36.992 146.299 36.32 145.755 35.456C145.211 34.592 144.939 33.576 144.939 32.408C144.939 30.968 145.259 29.688 145.899 28.568C146.555 27.432 147.451 26.536 148.587 25.88C149.739 25.224 151.059 24.896 152.547 24.896C153.811 24.896 154.899 25.136 155.811 25.616C156.723 26.08 157.427 26.736 157.923 27.584C158.435 28.416 158.691 29.416 158.691 30.584C158.691 30.92 158.667 31.256 158.619 31.592C158.587 31.928 158.539 32.248 158.475 32.552H147.795L148.179 30.368H156.723L155.187 31.04C155.315 30.32 155.275 29.72 155.067 29.24C154.859 28.744 154.523 28.368 154.059 28.112C153.595 27.84 153.035 27.704 152.379 27.704C151.563 27.704 150.867 27.904 150.291 28.304C149.731 28.688 149.307 29.224 149.019 29.912C148.731 30.6 148.587 31.376 148.587 32.24C148.587 33.232 148.859 33.976 149.403 34.472C149.963 34.952 150.803 35.192 151.923 35.192C152.579 35.192 153.211 35.088 153.819 34.88C154.427 34.672 154.947 34.376 155.379 33.992L156.939 36.464C156.187 37.056 155.339 37.496 154.395 37.784C153.467 38.056 152.515 38.192 151.539 38.192ZM170.262 38L172.974 24.368H167.598L168.246 21.2H182.886L182.238 24.368H176.886L174.15 38H170.262ZM181.097 38L183.665 25.088H187.217L186.473 28.76L186.137 27.704C186.713 26.664 187.465 25.936 188.393 25.52C189.321 25.104 190.433 24.896 191.729 24.896L191.057 28.352C190.897 28.336 190.745 28.328 190.601 28.328C190.473 28.312 190.337 28.304 190.193 28.304C189.089 28.304 188.185 28.576 187.481 29.12C186.793 29.664 186.329 30.544 186.089 31.76L184.841 38H181.097ZM197.077 38.192C196.085 38.192 195.165 37.968 194.317 37.52C193.469 37.056 192.789 36.392 192.277 35.528C191.765 34.664 191.509 33.624 191.509 32.408C191.509 31.32 191.685 30.32 192.037 29.408C192.405 28.496 192.917 27.704 193.573 27.032C194.229 26.36 194.989 25.84 195.853 25.472C196.717 25.088 197.645 24.896 198.637 24.896C199.709 24.896 200.629 25.096 201.397 25.496C202.165 25.896 202.733 26.52 203.101 27.368C203.485 28.2 203.621 29.28 203.509 30.608C203.429 32.128 203.117 33.464 202.573 34.616C202.029 35.752 201.293 36.632 200.365 37.256C199.453 37.88 198.357 38.192 197.077 38.192ZM198.229 35.096C198.965 35.096 199.613 34.92 200.173 34.568C200.749 34.2 201.197 33.704 201.517 33.08C201.853 32.44 202.021 31.696 202.021 30.848C202.021 29.968 201.757 29.272 201.229 28.76C200.717 28.248 199.997 27.992 199.069 27.992C198.349 27.992 197.701 28.176 197.125 28.544C196.549 28.896 196.093 29.392 195.757 30.032C195.437 30.656 195.277 31.392 195.277 32.24C195.277 33.12 195.533 33.816 196.045 34.328C196.573 34.84 197.301 35.096 198.229 35.096ZM200.797 38L201.301 35.432L202.141 31.592L202.645 27.752L203.173 25.088H206.917L204.349 38H200.797ZM214.631 38.192C213.303 38.192 212.143 37.952 211.151 37.472C210.175 36.992 209.415 36.32 208.871 35.456C208.327 34.592 208.055 33.576 208.055 32.408C208.055 30.968 208.391 29.688 209.063 28.568C209.735 27.432 210.663 26.536 211.847 25.88C213.031 25.224 214.391 24.896 215.927 24.896C217.303 24.896 218.495 25.184 219.503 25.76C220.511 26.32 221.255 27.12 221.735 28.16L218.567 29.744C218.295 29.136 217.911 28.696 217.415 28.424C216.935 28.136 216.359 27.992 215.687 27.992C214.951 27.992 214.295 28.176 213.719 28.544C213.143 28.896 212.687 29.392 212.351 30.032C212.015 30.656 211.847 31.384 211.847 32.216C211.847 33.096 212.103 33.8 212.615 34.328C213.143 34.84 213.887 35.096 214.847 35.096C215.503 35.096 216.103 34.96 216.647 34.688C217.191 34.4 217.647 33.96 218.015 33.368L220.775 35.096C220.167 36.072 219.319 36.832 218.231 37.376C217.159 37.92 215.959 38.192 214.631 38.192ZM225.669 35.408L226.485 30.776L233.421 25.088H238.293L231.069 31.112L228.981 32.648L225.669 35.408ZM221.925 38L225.477 20.192H229.221L225.669 38H221.925ZM231.645 38L228.333 32.576L230.949 29.72L235.989 38H231.645ZM243.718 38.192C242.374 38.192 241.206 37.952 240.214 37.472C239.238 36.992 238.478 36.32 237.934 35.456C237.39 34.592 237.118 33.576 237.118 32.408C237.118 30.968 237.438 29.688 238.078 28.568C238.734 27.432 239.63 26.536 240.766 25.88C241.918 25.224 243.238 24.896 244.726 24.896C245.99 24.896 247.078 25.136 247.99 25.616C248.902 26.08 249.606 26.736 250.102 27.584C250.614 28.416 250.87 29.416 250.87 30.584C250.87 30.92 250.846 31.256 250.798 31.592C250.766 31.928 250.718 32.248 250.654 32.552H239.974L240.358 30.368H248.902L247.366 31.04C247.494 30.32 247.454 29.72 247.246 29.24C247.038 28.744 246.702 28.368 246.238 28.112C245.774 27.84 245.214 27.704 244.558 27.704C243.742 27.704 243.046 27.904 242.47 28.304C241.91 28.688 241.486 29.224 241.198 29.912C240.91 30.6 240.766 31.376 240.766 32.24C240.766 33.232 241.038 33.976 241.582 34.472C242.142 34.952 242.982 35.192 244.102 35.192C244.758 35.192 245.39 35.088 245.998 34.88C246.606 34.672 247.126 34.376 247.558 33.992L249.118 36.464C248.366 37.056 247.518 37.496 246.574 37.784C245.646 38.056 244.694 38.192 243.718 38.192ZM251.925 38L254.493 25.088H258.045L257.301 28.76L256.965 27.704C257.541 26.664 258.293 25.936 259.221 25.52C260.149 25.104 261.261 24.896 262.557 24.896L261.885 28.352C261.725 28.336 261.573 28.328 261.429 28.328C261.301 28.312 261.165 28.304 261.021 28.304C259.917 28.304 259.013 28.576 258.309 29.12C257.621 29.664 257.157 30.544 256.917 31.76L255.669 38H251.925Z" fill="white"/>
<path d="M0.6 47L18.696 27.416L17.928 31.88L7.992 13.4H16.296L23.208 26.648L19.8 26.552L31.704 13.4H40.536L23.544 31.88L23.784 27.464L34.44 47H26.04L18.744 32.984L22.248 33.128L9.912 47H0.6Z" fill="white"/>
</svg>
